<?xml version="1.0" encoding="UTF-8" standalone="no"?><!DOCTYPE svg PUBLIC "-//W3C//DTD SVG 1.1//EN" "http://www.w3.org/Graphics/SVG/1.1/DTD/svg11.dtd"><svg width="100%" height="100%" viewBox="0 0 100 100" version="1.1" xmlns="http://www.w3.org/2000/svg" xmlns:xlink="http://www.w3.org/1999/xlink" xml:space="preserve" xmlns:serif="http://www.serif.com/" style="fill-rule:evenodd;clip-rule:evenodd;stroke-linejoin:round;stroke-miterlimit:2;"><g id="back-base" serif:id="back base"><circle cx="50" cy="50" r="50" style="fill:url(#_Linear1);"/></g><g id="flower"><path id="base" d="M82.476,43.336c0,-13.144 -10.671,-23.816 -23.816,-23.816l-17.32,0c-13.145,0 -23.816,10.672 -23.816,23.816l-0,35.724l64.952,0l0,-35.724Z" style="fill:url(#_Linear2);"/><g id="petals"><g id="right"><path d="M78.417,32.704c-1.435,-2.633 -2.827,-1.104 -3.428,-0c-1.787,3.279 -2.887,46.356 -2.887,46.356l10.825,0c0,0 -2.105,-41.941 -4.51,-46.356Z" style="fill:url(#_Linear3);"/><path d="M82.927,79.06c-2.141,2.224 -4.18,2.256 -6.766,2.256c-2.586,-0 -4.059,-2.256 -4.059,-2.256c-0,0 3.104,0.312 4.962,-2.706c2.072,-3.368 2.255,-9.021 2.255,-9.021c-0,-0 0.948,0.751 2.706,3.608c1.575,2.56 3.044,5.895 0.902,8.119Z" style="fill:url(#_Linear4);"/></g><g id="left"><path d="M21.583,32.704c1.435,-2.633 2.827,-1.104 3.428,-0c1.787,3.279 2.887,46.356 2.887,46.356l-10.825,0c-0,0 2.105,-41.941 4.51,-46.356Z" style="fill:url(#_Linear5);"/><path d="M17.073,79.06c2.141,2.224 4.18,2.256 6.766,2.256c2.586,-0 4.059,-2.256 4.059,-2.256c0,0 -3.104,0.312 -4.962,-2.706c-2.072,-3.368 -2.255,-9.021 -2.255,-9.021c0,-0 -0.948,0.751 -2.706,3.608c-1.575,2.56 -3.044,5.895 -0.902,8.119Z" style="fill:url(#_Linear6);"/></g><g id="midright"><path d="M69.215,29.139c-3.239,-6.401 -4.901,-4.754 -7.307,-0c-1.787,3.531 -2.887,49.921 -2.887,49.921l13.081,0c-0,0 -0.481,-45.167 -2.887,-49.921Z" style="fill:url(#_Linear7);"/><path d="M72.102,79.06c-0.555,1.128 -2.376,2.256 -5.864,2.256c-3.488,-0 -7.217,-2.256 -7.217,-2.256c0,0 1.814,-1.142 3.886,-4.51c2.313,-3.759 3.331,-7.217 3.331,-7.217c0,-0 2.302,2.556 4.06,5.412c1.575,2.56 2.359,5.188 1.804,6.315Z" style="fill:url(#_Linear8);"/></g><g id="midleft"><path d="M30.785,29.139c3.239,-6.401 4.901,-4.754 7.307,-0c1.787,3.531 2.887,49.921 2.887,49.921l-13.081,0c0,0 0.481,-45.167 2.887,-49.921Z" style="fill:url(#_Linear9);"/><path d="M27.898,79.06c0.555,1.128 2.376,2.256 5.864,2.256c3.488,-0 7.217,-2.256 7.217,-2.256c-0,0 -1.814,-1.142 -3.886,-4.51c-2.313,-3.759 -3.331,-7.217 -3.331,-7.217c-0,-0 -2.302,2.556 -4.06,5.412c-1.575,2.56 -2.359,5.188 -1.804,6.315Z" style="fill:url(#_Linear10);"/></g><g id="middle"><path d="M55.413,28.542c-3.007,-4.812 -7.819,-4.812 -10.826,-0c-2.233,3.573 -3.608,50.518 -3.608,50.518l18.042,0c0,0 -1.375,-46.945 -3.608,-50.518Z" style="fill:url(#_Linear11);"/><path d="M59.021,79.06c0,0 -2.405,2.256 -9.021,2.256c-6.616,-0 -9.021,-2.256 -9.021,-2.256c-0,0 2.267,-1.142 4.857,-4.51c2.892,-3.759 4.164,-7.217 4.164,-7.217c0,-0 1.966,4.36 4.164,7.217c1.969,2.559 4.857,4.51 4.857,4.51Z" style="fill:url(#_Linear12);"/></g></g><ellipse id="stem-shadow" serif:id="stem shadow" cx="50" cy="24.188" rx="10.159" ry="4.354" style="fill:url(#_Radial13);"/><path id="stem" d="M54.354,0l-8.708,0l0,23.698c0,0 1.452,1.216 4.354,1.216c2.902,-0 4.354,-1.216 4.354,-1.216l-0,-23.698Z" style="fill:url(#_Linear14);"/></g><defs><linearGradient id="_Linear1" x1="0" y1="0" x2="1" y2="0" gradientUnits="userSpaceOnUse" gradientTransform="matrix(4.76112e-13,-100,341.667,1.3935e-13,50,100)"><stop offset="0" style="stop-color:#65d365;stop-opacity:1"/><stop offset="1" style="stop-color:#13b314;stop-opacity:1"/></linearGradient><linearGradient id="_Linear2" x1="0" y1="0" x2="1" y2="0" gradientUnits="userSpaceOnUse" gradientTransform="matrix(-3.89076e-07,-47.8122,52.9612,-3.51249e-07,50,67.3327)"><stop offset="0" style="stop-color:#e4e4e4;stop-opacity:1"/><stop offset="1" style="stop-color:#fff;stop-opacity:1"/></linearGradient><linearGradient id="_Linear3" x1="0" y1="0" x2="1" y2="3.27534e-06" gradientUnits="userSpaceOnUse" gradientTransform="matrix(1.76838e-06,-49.6678,10.8254,8.11348e-06,79.3188,79.0602)"><stop offset="0" style="stop-color:#e9e9e9;stop-opacity:1"/><stop offset="1" style="stop-color:#fff;stop-opacity:0"/></linearGradient><linearGradient id="_Linear4" x1="0" y1="0" x2="1" y2="0" gradientUnits="userSpaceOnUse" gradientTransform="matrix(-9.25043e-15,-13.9828,11.1863,-1.1563e-14,79.3188,81.3155)"><stop offset="0" style="stop-color:#cbcbcb;stop-opacity:1"/><stop offset="1" style="stop-color:#fff;stop-opacity:1"/></linearGradient><linearGradient id="_Linear5" x1="0" y1="0" x2="1" y2="3.27534e-06" gradientUnits="userSpaceOnUse" gradientTransform="matrix(-1.76838e-06,-49.6678,-10.8254,8.11348e-06,20.6812,79.0602)"><stop offset="0" style="stop-color:#e9e9e9;stop-opacity:1"/><stop offset="1" style="stop-color:#fff;stop-opacity:0"/></linearGradient><linearGradient id="_Linear6" x1="0" y1="0" x2="1" y2="0" gradientUnits="userSpaceOnUse" gradientTransform="matrix(9.25043e-15,-13.9828,-11.1863,-1.1563e-14,20.6812,81.3155)"><stop offset="0" style="stop-color:#cbcbcb;stop-opacity:1"/><stop offset="1" style="stop-color:#fff;stop-opacity:1"/></linearGradient><linearGradient id="_Linear7" x1="0" y1="0" x2="1" y2="3.82452e-06" gradientUnits="userSpaceOnUse" gradientTransform="matrix(1.76838e-06,-53.4871,10.8254,8.73738e-06,66.2381,79.0602)"><stop offset="0" style="stop-color:#e9e9e9;stop-opacity:1"/><stop offset="1" style="stop-color:#fff;stop-opacity:0"/></linearGradient><linearGradient id="_Linear8" x1="0" y1="0" x2="1" y2="0" gradientUnits="userSpaceOnUse" gradientTransform="matrix(-9.25043e-15,-13.9828,11.1863,-1.1563e-14,66.2381,81.3155)"><stop offset="0" style="stop-color:#cbcbcb;stop-opacity:1"/><stop offset="1" style="stop-color:#fff;stop-opacity:1"/></linearGradient><linearGradient id="_Linear9" x1="0" y1="0" x2="1" y2="3.82452e-06" gradientUnits="userSpaceOnUse" gradientTransform="matrix(-1.76838e-06,-53.4871,-10.8254,8.73738e-06,33.7619,79.0602)"><stop offset="0" style="stop-color:#e9e9e9;stop-opacity:1"/><stop offset="1" style="stop-color:#fff;stop-opacity:0"/></linearGradient><linearGradient id="_Linear10" x1="0" y1="0" x2="1" y2="0" gradientUnits="userSpaceOnUse" gradientTransform="matrix(9.25043e-15,-13.9828,-11.1863,-1.1563e-14,33.7619,81.3155)"><stop offset="0" style="stop-color:#cbcbcb;stop-opacity:1"/><stop offset="1" style="stop-color:#fff;stop-opacity:1"/></linearGradient><linearGradient id="_Linear11" x1="0" y1="0" x2="1" y2="2.45032e-06" gradientUnits="userSpaceOnUse" gradientTransform="matrix(2.21048e-06,-54.127,13.5318,8.84192e-06,50,79.0602)"><stop offset="0" style="stop-color:#e9e9e9;stop-opacity:1"/><stop offset="1" style="stop-color:#fff;stop-opacity:0"/></linearGradient><linearGradient id="_Linear12" x1="0" y1="0" x2="1" y2="0" gradientUnits="userSpaceOnUse" gradientTransform="matrix(-1.1563e-14,-13.9828,13.9828,-1.1563e-14,50,81.3155)"><stop offset="0" style="stop-color:#cbcbcb;stop-opacity:1"/><stop offset="1" style="stop-color:#fff;stop-opacity:1"/></linearGradient><radialGradient id="_Radial13" cx="0" cy="0" r="1" gradientUnits="userSpaceOnUse" gradientTransform="matrix(10.1586,0,0,4.3537,50,24.188)"><stop offset="0" style="stop-color:#b2b2b2;stop-opacity:1"/><stop offset="1" style="stop-color:#fff;stop-opacity:0"/></radialGradient><linearGradient id="_Linear14" x1="0" y1="0" x2="1" y2="0" gradientUnits="userSpaceOnUse" gradientTransform="matrix(4.1457e-14,-24.9136,29.7503,3.47171e-14,50,24.9136)"><stop offset="0" style="stop-color:#13b314;stop-opacity:1"/><stop offset="1" style="stop-color:#65d365;stop-opacity:1"/></linearGradient></defs></svg>